<?xml version="1.0" encoding="utf-8"?>
<!-- Generator: Adobe Illustrator 24.1.1, SVG Export Plug-In . SVG Version: 6.00 Build 0)  -->
<svg version="1.1" id="Layer_1" xmlns="http://www.w3.org/2000/svg" xmlns:xlink="http://www.w3.org/1999/xlink" x="0px" y="0px"
	 viewBox="0 0 512 512" style="enable-background:new 0 0 512 512;" xml:space="preserve">
<g>
	<path d="M153.7,0c-10.3,0-18.8,2.2-25.3,6.4c-6.5,4.2-9.7,9.8-9.7,16.6v465.4c0,5.8,3.3,11.3,10.1,16.1c6.7,5,15,7.5,24.9,7.5
		c9.4,0,17.7-2.5,24.9-7.5c7.2-4.9,10.8-10.3,10.8-16.1V23.1c0-6.8-3.4-12.3-10.4-16.7C172,2.2,163.6,0,153.7,0L153.7,0z
		 M356.9,184.8c-10.3,0-18.6,2.2-24.9,6.4l-94.7,59.4c-4.2,3.9-6.1,10-5.3,18.3c0.8,8.1,4.5,15.9,11.2,23.2
		c6.8,7.3,14.3,12,22.8,13.9c8.4,1.9,14.8,0.9,19.1-3l37.5-23.4v208.8c0,5.8,3.3,11.3,9.7,16.1c6.4,5,14.7,7.5,24.6,7.5
		c9.9,0,18.4-2.5,25.6-7.5c7.2-4.9,10.8-10.3,10.8-16.1V207.7c0-6.8-3.5-12.3-10.4-16.6C375.9,186.9,367.3,184.8,356.9,184.8z"/>
</g>
</svg>
